<svg id="SvgjsSvg1006" width="905" height="318" xmlns="http://www.w3.org/2000/svg" version="1.1" xmlns:xlink="http://www.w3.org/1999/xlink" xmlns:svgjs="http://svgjs.com/svgjs"><defs id="SvgjsDefs1007"><marker id="SvgjsMarker1028" markerWidth="16" markerHeight="12" refX="16" refY="6" viewBox="0 0 16 12" orient="auto" markerUnits="userSpaceOnUse"><path id="SvgjsPath1029" d="M0,2 L14,6 L0,11 L0,2" fill="#323232" stroke="#323232" stroke-width="2"></path></marker><marker id="SvgjsMarker1040" markerWidth="16" markerHeight="12" refX="16" refY="6" viewBox="0 0 16 12" orient="auto" markerUnits="userSpaceOnUse"><path id="SvgjsPath1041" d="M0,2 L14,6 L0,11 L0,2" fill="#323232" stroke="#323232" stroke-width="2"></path></marker><marker id="SvgjsMarker1048" markerWidth="16" markerHeight="12" refX="16" refY="6" viewBox="0 0 16 12" orient="auto" markerUnits="userSpaceOnUse"><path id="SvgjsPath1049" d="M0,2 L14,6 L0,11 L0,2" fill="#323232" stroke="#323232" stroke-width="2"></path></marker><marker id="SvgjsMarker1058" markerWidth="16" markerHeight="12" refX="16" refY="6" viewBox="0 0 16 12" orient="auto" markerUnits="userSpaceOnUse"><path id="SvgjsPath1059" d="M0,2 L14,6 L0,11 L0,2" fill="#323232" stroke="#323232" stroke-width="2"></path></marker><marker id="SvgjsMarker1072" markerWidth="16" markerHeight="12" refX="16" refY="6" viewBox="0 0 16 12" orient="auto" markerUnits="userSpaceOnUse"><path id="SvgjsPath1073" d="M0,2 L14,6 L0,11 L0,2" fill="#323232" stroke="#323232" stroke-width="2"></path></marker><marker id="SvgjsMarker1082" markerWidth="16" markerHeight="12" refX="16" refY="6" viewBox="0 0 16 12" orient="auto" markerUnits="userSpaceOnUse"><path id="SvgjsPath1083" d="M0,2 L14,6 L0,11 L0,2" fill="#323232" stroke="#323232" stroke-width="2"></path></marker><marker id="SvgjsMarker1096" markerWidth="16" markerHeight="12" refX="16" refY="6" viewBox="0 0 16 12" orient="auto" markerUnits="userSpaceOnUse"><path id="SvgjsPath1097" d="M0,2 L14,6 L0,11 L0,2" fill="#323232" stroke="#323232" stroke-width="2"></path></marker></defs><g id="SvgjsG1008" transform="translate(55,25)"><path id="SvgjsPath1009" d="M 16.666666666666668 0L 83.33333333333333 0C 105.55555555555556 0 105.55555555555556 50 83.33333333333333 50L 16.666666666666668 50C -5.555555555555556 50 -5.555555555555556 0 16.666666666666668 0Z" stroke="#323232" stroke-width="2" fill-opacity="1" fill="#ffffff"></path><g id="SvgjsG1010"><text id="SvgjsText1011" font-family="微软雅黑" text-anchor="middle" font-size="13px" width="78" fill="#323232" font-weight="400" align="middle" anchor="middle" family="微软雅黑" size="13px" weight="400" font-style="" y="15.05" transform="rotate(0)"><tspan id="SvgjsTspan1012" dy="16" x="50"><tspan id="SvgjsTspan1013" style="text-decoration:;">遇到new指令</tspan></tspan></text></g></g><g id="SvgjsG1014" transform="translate(55,120)"><path id="SvgjsPath1015" d="M 0 30L 50 0L 100 30L 50 60L 0 30Z" stroke="#323232" stroke-width="2" fill-opacity="1" fill="#ffffff"></path><g id="SvgjsG1016"><text id="SvgjsText1017" font-family="微软雅黑" text-anchor="middle" font-size="13px" width="78" fill="#323232" font-weight="400" align="middle" anchor="middle" family="微软雅黑" size="13px" weight="400" font-style="" y="-3.95" transform="rotate(0)"><tspan id="SvgjsTspan1018" dy="16" x="50"><tspan id="SvgjsTspan1019" style="text-decoration:;">检查常量池是</tspan></tspan><tspan id="SvgjsTspan1020" dy="16" x="50"><tspan id="SvgjsTspan1021" style="text-decoration:;">否能定位到一</tspan></tspan><tspan id="SvgjsTspan1022" dy="16" x="50"><tspan id="SvgjsTspan1023" style="text-decoration:;">个类的符合引</tspan></tspan><tspan id="SvgjsTspan1024" dy="16" x="50"><tspan id="SvgjsTspan1025" style="text-decoration:;">用</tspan></tspan></text></g></g><g id="SvgjsG1026"><path id="SvgjsPath1027" d="M105 75L105 97.5L105 97.5L105 120" stroke="#323232" stroke-width="2" fill="none" marker-end="url(#SvgjsMarker1028)"></path></g><g id="SvgjsG1030" transform="translate(55,223)"><path id="SvgjsPath1031" d="M 0 0L 100 0L 100 70L 0 70Z" stroke="#323232" stroke-width="2" fill-opacity="1" fill="#ffffff"></path><g id="SvgjsG1032"><text id="SvgjsText1033" font-family="微软雅黑" text-anchor="middle" font-size="13px" width="78" fill="#323232" font-weight="400" align="middle" anchor="middle" family="微软雅黑" size="13px" weight="400" font-style="" y="17.05" transform="rotate(0)"><tspan id="SvgjsTspan1034" dy="16" x="50"><tspan id="SvgjsTspan1035" style="text-decoration:;">执行类加载过</tspan></tspan><tspan id="SvgjsTspan1036" dy="16" x="50"><tspan id="SvgjsTspan1037" style="text-decoration:;">程</tspan></tspan></text></g></g><g id="SvgjsG1038"><path id="SvgjsPath1039" d="M105 180L105 201.5L105 201.5L105 223" stroke="#323232" stroke-width="2" fill="none" marker-end="url(#SvgjsMarker1040)"></path><rect id="SvgjsRect1042" width="13" height="16" x="98.5" y="193.5" fill="#ffffff"></rect><text id="SvgjsText1043" font-family="微软雅黑" text-anchor="middle" font-size="13px" width="13" fill="#323232" font-weight="400" align="top" anchor="middle" family="微软雅黑" size="13px" weight="400" font-style="" y="191.55" transform="rotate(0)"><tspan id="SvgjsTspan1044" dy="16" x="105"><tspan id="SvgjsTspan1045" style="text-decoration:;">否</tspan></tspan></text></g><g id="SvgjsG1046"><path id="SvgjsPath1047" d="M55 258L25 258L25 150L55 150" stroke="#323232" stroke-width="2" fill="none" marker-end="url(#SvgjsMarker1048)"></path></g><g id="SvgjsG1050" transform="translate(238,115)"><path id="SvgjsPath1051" d="M 0 0L 100 0L 100 70L 0 70Z" stroke="#323232" stroke-width="2" fill-opacity="1" fill="#ffffff"></path><g id="SvgjsG1052"><text id="SvgjsText1053" font-family="微软雅黑" text-anchor="middle" font-size="13px" width="52" fill="#323232" font-weight="400" align="middle" anchor="middle" family="微软雅黑" size="13px" weight="400" font-style="" y="25.05" transform="rotate(0)"><tspan id="SvgjsTspan1054" dy="16" x="50"><tspan id="SvgjsTspan1055" style="text-decoration:;">分配内存</tspan></tspan></text></g></g><g id="SvgjsG1056"><path id="SvgjsPath1057" d="M155 150L196.5 150L196.5 150L238 150" stroke="#323232" stroke-width="2" fill="none" marker-end="url(#SvgjsMarker1058)"></path></g><g id="SvgjsG1060" transform="translate(427,115)"><path id="SvgjsPath1061" d="M 0 0L 100 0L 100 70L 0 70Z" stroke="#323232" stroke-width="2" fill-opacity="1" fill="#ffffff"></path><g id="SvgjsG1062"><text id="SvgjsText1063" font-family="微软雅黑" text-anchor="middle" font-size="13px" width="78" fill="#323232" font-weight="400" align="middle" anchor="middle" family="微软雅黑" size="13px" weight="400" font-style="" y="9.05" transform="rotate(0)"><tspan id="SvgjsTspan1064" dy="16" x="50"><tspan id="SvgjsTspan1065" style="text-decoration:;">内存空间初始</tspan></tspan><tspan id="SvgjsTspan1066" dy="16" x="50"><tspan id="SvgjsTspan1067" style="text-decoration:;">化为零值(不</tspan></tspan><tspan id="SvgjsTspan1068" dy="16" x="50"><tspan id="SvgjsTspan1069" style="text-decoration:;">包括对象头)</tspan></tspan></text></g></g><g id="SvgjsG1070"><path id="SvgjsPath1071" d="M338 150L382.5 150L382.5 150L427 150" stroke="#323232" stroke-width="2" fill="none" marker-end="url(#SvgjsMarker1072)"></path></g><g id="SvgjsG1074" transform="translate(600,115)"><path id="SvgjsPath1075" d="M 0 0L 100 0L 100 70L 0 70Z" stroke="#323232" stroke-width="2" fill-opacity="1" fill="#ffffff"></path><g id="SvgjsG1076"><text id="SvgjsText1077" font-family="微软雅黑" text-anchor="middle" font-size="13px" width="65" fill="#323232" font-weight="400" align="middle" anchor="middle" family="微软雅黑" size="13px" weight="400" font-style="" y="25.05" transform="rotate(0)"><tspan id="SvgjsTspan1078" dy="16" x="50"><tspan id="SvgjsTspan1079" style="text-decoration:;">设置对象头</tspan></tspan></text></g></g><g id="SvgjsG1080"><path id="SvgjsPath1081" d="M527 150L563.5 150L563.5 150L600 150" stroke="#323232" stroke-width="2" fill="none" marker-end="url(#SvgjsMarker1082)"></path></g><g id="SvgjsG1084" transform="translate(780,125)"><path id="SvgjsPath1085" d="M 16.666666666666668 0L 83.33333333333333 0C 105.55555555555556 0 105.55555555555556 50 83.33333333333333 50L 16.666666666666668 50C -5.555555555555556 50 -5.555555555555556 0 16.666666666666668 0Z" stroke="#323232" stroke-width="2" fill-opacity="1" fill="#ffffff"></path><g id="SvgjsG1086"><text id="SvgjsText1087" font-family="微软雅黑" text-anchor="middle" font-size="13px" width="78" fill="#323232" font-weight="400" align="middle" anchor="middle" family="微软雅黑" size="13px" weight="400" font-style="" y="-0.95" transform="rotate(0)"><tspan id="SvgjsTspan1088" dy="16" x="50"><tspan id="SvgjsTspan1089" style="text-decoration:;">jvm的角度完</tspan></tspan><tspan id="SvgjsTspan1090" dy="16" x="50"><tspan id="SvgjsTspan1091" style="text-decoration:;">成了对象的创</tspan></tspan><tspan id="SvgjsTspan1092" dy="16" x="50"><tspan id="SvgjsTspan1093" style="text-decoration:;">建</tspan></tspan></text></g></g><g id="SvgjsG1094"><path id="SvgjsPath1095" d="M700 150L740 150L740 150L780 150" stroke="#323232" stroke-width="2" fill="none" marker-end="url(#SvgjsMarker1096)"></path></g></svg>